<mxfile host="app.diagrams.net" modified="2021-02-12T16:34:18.244Z" agent="5.0 (Windows NT 10.0; Win64; x64) AppleWebKit/537.36 (KHTML, like Gecko) Chrome/84.0.4147.105 Safari/537.36" etag="ZmDSUngZ86iXK8DAtPZK" version="14.2.9" type="github">
  <diagram id="admTBz_KrJmi1BbA4oSx" name="Page-1">
    <mxGraphModel dx="3539" dy="1272" grid="1" gridSize="10" guides="1" tooltips="1" connect="1" arrows="1" fold="1" page="1" pageScale="1" pageWidth="1169" pageHeight="827" math="0" shadow="0">
      <root>
        <mxCell id="0" />
        <mxCell id="1" parent="0" />
        <mxCell id="mFbpa8uduFXjR7Y9WIhg-90" value="" style="rounded=0;whiteSpace=wrap;html=1;dashed=1;sketch=0;" vertex="1" parent="1">
          <mxGeometry x="-1120" y="130" width="670" height="530" as="geometry" />
        </mxCell>
        <mxCell id="mFbpa8uduFXjR7Y9WIhg-89" value="" style="rounded=0;whiteSpace=wrap;html=1;dashed=1;sketch=0;" vertex="1" parent="1">
          <mxGeometry x="-190" y="130" width="690" height="530" as="geometry" />
        </mxCell>
        <mxCell id="mFbpa8uduFXjR7Y9WIhg-88" value="" style="rounded=0;whiteSpace=wrap;html=1;dashed=1;sketch=0;" vertex="1" parent="1">
          <mxGeometry x="-500" y="710" width="670" height="600" as="geometry" />
        </mxCell>
        <mxCell id="mFbpa8uduFXjR7Y9WIhg-39" value="" style="shape=cylinder3;whiteSpace=wrap;html=1;boundedLbl=1;backgroundOutline=1;size=15;" vertex="1" parent="1">
          <mxGeometry x="-64" y="959" width="205" height="240" as="geometry" />
        </mxCell>
        <mxCell id="jYcr3VotyzjDWBihK4hr-34" value="" style="rounded=1;whiteSpace=wrap;html=1;strokeWidth=1;perimeterSpacing=0;" parent="1" vertex="1">
          <mxGeometry x="-801" y="230" width="310" height="410" as="geometry" />
        </mxCell>
        <mxCell id="jYcr3VotyzjDWBihK4hr-35" value="" style="shape=cylinder3;whiteSpace=wrap;html=1;boundedLbl=1;backgroundOutline=1;size=15;" parent="1" vertex="1">
          <mxGeometry x="-1090" y="345" width="205" height="240" as="geometry" />
        </mxCell>
        <mxCell id="jYcr3VotyzjDWBihK4hr-39" style="edgeStyle=orthogonalEdgeStyle;rounded=0;orthogonalLoop=1;jettySize=auto;html=1;entryX=0.5;entryY=0;entryDx=0;entryDy=0;strokeWidth=4;strokeColor=#0000CC;" parent="1" source="jYcr3VotyzjDWBihK4hr-40" target="jYcr3VotyzjDWBihK4hr-125" edge="1">
          <mxGeometry relative="1" as="geometry">
            <mxPoint x="-646" y="265" as="targetPoint" />
          </mxGeometry>
        </mxCell>
        <mxCell id="mFbpa8uduFXjR7Y9WIhg-10" value="" style="edgeStyle=orthogonalEdgeStyle;rounded=0;orthogonalLoop=1;jettySize=auto;html=1;strokeWidth=4;fillColor=#60a917;strokeColor=#2D7600;" edge="1" parent="1" source="jYcr3VotyzjDWBihK4hr-40" target="jYcr3VotyzjDWBihK4hr-125">
          <mxGeometry relative="1" as="geometry" />
        </mxCell>
        <mxCell id="jYcr3VotyzjDWBihK4hr-40" value="Handler" style="rounded=0;whiteSpace=wrap;html=1;" parent="1" vertex="1">
          <mxGeometry x="-706" y="160" width="120" height="60" as="geometry" />
        </mxCell>
        <mxCell id="jYcr3VotyzjDWBihK4hr-44" value="" style="rounded=1;whiteSpace=wrap;html=1;fillColor=#ffffff;" parent="1" vertex="1">
          <mxGeometry x="-791" y="540" width="290" height="60" as="geometry" />
        </mxCell>
        <mxCell id="jYcr3VotyzjDWBihK4hr-48" value="" style="rounded=1;whiteSpace=wrap;html=1;fillColor=#ffffff;" parent="1" vertex="1">
          <mxGeometry x="-791" y="470" width="290" height="60" as="geometry" />
        </mxCell>
        <mxCell id="jYcr3VotyzjDWBihK4hr-49" value="" style="rounded=1;whiteSpace=wrap;html=1;fillColor=#ffffff;" parent="1" vertex="1">
          <mxGeometry x="-791" y="400" width="290" height="60" as="geometry" />
        </mxCell>
        <mxCell id="jYcr3VotyzjDWBihK4hr-50" value="" style="rounded=1;whiteSpace=wrap;html=1;fillColor=#ffffff;" parent="1" vertex="1">
          <mxGeometry x="-791" y="330" width="290" height="60" as="geometry" />
        </mxCell>
        <mxCell id="jYcr3VotyzjDWBihK4hr-51" value="PublishService" style="text;html=1;strokeColor=none;fillColor=none;align=left;verticalAlign=middle;whiteSpace=wrap;rounded=0;" parent="1" vertex="1">
          <mxGeometry x="-780" y="550" width="100" height="20" as="geometry" />
        </mxCell>
        <mxCell id="jYcr3VotyzjDWBihK4hr-52" value="EventStoreService" style="text;html=1;strokeColor=none;fillColor=none;align=left;verticalAlign=middle;whiteSpace=wrap;rounded=0;" parent="1" vertex="1">
          <mxGeometry x="-780" y="480" width="100" height="20" as="geometry" />
        </mxCell>
        <mxCell id="jYcr3VotyzjDWBihK4hr-53" value="LicenseService" style="text;html=1;strokeColor=none;fillColor=none;align=left;verticalAlign=middle;whiteSpace=wrap;rounded=0;" parent="1" vertex="1">
          <mxGeometry x="-780" y="410" width="100" height="20" as="geometry" />
        </mxCell>
        <mxCell id="jYcr3VotyzjDWBihK4hr-54" value="AccountContext" style="text;html=1;strokeColor=none;fillColor=none;align=left;verticalAlign=middle;whiteSpace=wrap;rounded=0;" parent="1" vertex="1">
          <mxGeometry x="-780" y="340" width="100" height="20" as="geometry" />
        </mxCell>
        <mxCell id="jYcr3VotyzjDWBihK4hr-55" value="StatesManager" style="text;html=1;strokeColor=none;fillColor=none;align=left;verticalAlign=middle;whiteSpace=wrap;rounded=0;" parent="1" vertex="1">
          <mxGeometry x="-780" y="240" width="100" height="20" as="geometry" />
        </mxCell>
        <mxCell id="jYcr3VotyzjDWBihK4hr-60" value="AccountGlobalEvent" style="shape=hexagon;perimeter=hexagonPerimeter2;whiteSpace=wrap;html=1;fixedSize=1;fillColor=#dae8fc;strokeColor=#6c8ebf;" parent="1" vertex="1">
          <mxGeometry x="-670" y="477.5" width="160" height="45" as="geometry" />
        </mxCell>
        <mxCell id="jYcr3VotyzjDWBihK4hr-61" value="AccountConcreteState" style="rounded=1;whiteSpace=wrap;html=1;strokeWidth=1;fillColor=#fff2cc;strokeColor=#d6b656;" parent="1" vertex="1">
          <mxGeometry x="-670" y="410" width="160" height="40" as="geometry" />
        </mxCell>
        <mxCell id="jYcr3VotyzjDWBihK4hr-64" value="AccountAbstractState" style="rounded=1;whiteSpace=wrap;html=1;strokeWidth=1;fillColor=#f5f5f5;strokeColor=#666666;fontColor=#333333;dashed=1;" parent="1" vertex="1">
          <mxGeometry x="-670" y="340" width="160" height="40" as="geometry" />
        </mxCell>
        <mxCell id="jYcr3VotyzjDWBihK4hr-100" style="edgeStyle=orthogonalEdgeStyle;rounded=0;orthogonalLoop=1;jettySize=auto;html=1;entryX=0;entryY=0.5;entryDx=0;entryDy=0;strokeColor=#0000CC;strokeWidth=4;dashed=1;dashPattern=1 1;" parent="1" source="jYcr3VotyzjDWBihK4hr-68" target="jYcr3VotyzjDWBihK4hr-69" edge="1">
          <mxGeometry relative="1" as="geometry" />
        </mxCell>
        <mxCell id="jYcr3VotyzjDWBihK4hr-68" value="AccountGlobalEvent" style="shape=hexagon;perimeter=hexagonPerimeter2;whiteSpace=wrap;html=1;fixedSize=1;fillColor=#dae8fc;strokeColor=#6c8ebf;" parent="1" vertex="1">
          <mxGeometry x="-670" y="547.5" width="160" height="45" as="geometry" />
        </mxCell>
        <mxCell id="mFbpa8uduFXjR7Y9WIhg-4" style="edgeStyle=orthogonalEdgeStyle;rounded=0;orthogonalLoop=1;jettySize=auto;html=1;entryX=1;entryY=0.5;entryDx=0;entryDy=0;strokeWidth=4;fillColor=#60a917;strokeColor=#2D7600;dashed=1;dashPattern=1 1;" edge="1" parent="1" source="jYcr3VotyzjDWBihK4hr-69" target="jYcr3VotyzjDWBihK4hr-40">
          <mxGeometry relative="1" as="geometry">
            <Array as="points">
              <mxPoint x="-320" y="190" />
            </Array>
          </mxGeometry>
        </mxCell>
        <mxCell id="mFbpa8uduFXjR7Y9WIhg-6" style="edgeStyle=orthogonalEdgeStyle;rounded=0;orthogonalLoop=1;jettySize=auto;html=1;exitX=0.25;exitY=1;exitDx=0;exitDy=0;strokeWidth=4;fillColor=#0050ef;strokeColor=#001DBC;entryX=0.5;entryY=0;entryDx=0;entryDy=0;dashed=1;dashPattern=1 1;" edge="1" parent="1" source="jYcr3VotyzjDWBihK4hr-69" target="mFbpa8uduFXjR7Y9WIhg-46">
          <mxGeometry relative="1" as="geometry">
            <mxPoint x="-370" y="710.0000000000002" as="targetPoint" />
            <Array as="points" />
          </mxGeometry>
        </mxCell>
        <mxCell id="mFbpa8uduFXjR7Y9WIhg-8" style="edgeStyle=orthogonalEdgeStyle;rounded=0;orthogonalLoop=1;jettySize=auto;html=1;entryX=0;entryY=0.5;entryDx=0;entryDy=0;strokeWidth=4;fillColor=#0050ef;strokeColor=#001DBC;dashed=1;dashPattern=1 1;" edge="1" parent="1" source="jYcr3VotyzjDWBihK4hr-69" target="jYcr3VotyzjDWBihK4hr-79">
          <mxGeometry relative="1" as="geometry">
            <Array as="points">
              <mxPoint x="-170" y="375" />
              <mxPoint x="-170" y="190" />
            </Array>
          </mxGeometry>
        </mxCell>
        <mxCell id="jYcr3VotyzjDWBihK4hr-69" value="" style="rounded=1;whiteSpace=wrap;html=1;strokeWidth=1;fillColor=#ffffff;" parent="1" vertex="1">
          <mxGeometry x="-420" y="230" width="200" height="290" as="geometry" />
        </mxCell>
        <mxCell id="jYcr3VotyzjDWBihK4hr-73" style="edgeStyle=orthogonalEdgeStyle;rounded=0;orthogonalLoop=1;jettySize=auto;html=1;exitX=0.5;exitY=1;exitDx=0;exitDy=0;entryX=0.5;entryY=0;entryDx=0;entryDy=0;strokeColor=#2D7600;strokeWidth=4;fillColor=#60a917;" parent="1" source="jYcr3VotyzjDWBihK4hr-72" target="jYcr3VotyzjDWBihK4hr-40" edge="1">
          <mxGeometry relative="1" as="geometry" />
        </mxCell>
        <mxCell id="jYcr3VotyzjDWBihK4hr-72" value="&lt;font style=&quot;font-size: 27px&quot;&gt;&lt;b&gt;Command&lt;/b&gt;&lt;/font&gt;" style="ellipse;whiteSpace=wrap;html=1;strokeWidth=1;fillColor=#ffffff;" parent="1" vertex="1">
          <mxGeometry x="-719" y="30" width="146" height="80" as="geometry" />
        </mxCell>
        <mxCell id="jYcr3VotyzjDWBihK4hr-74" value="" style="rounded=1;whiteSpace=wrap;html=1;strokeWidth=1;perimeterSpacing=0;" parent="1" vertex="1">
          <mxGeometry x="-150" y="230" width="310" height="410" as="geometry" />
        </mxCell>
        <mxCell id="jYcr3VotyzjDWBihK4hr-75" value="" style="shape=cylinder3;whiteSpace=wrap;html=1;boundedLbl=1;backgroundOutline=1;size=15;" parent="1" vertex="1">
          <mxGeometry x="260" y="345" width="205" height="240" as="geometry" />
        </mxCell>
        <mxCell id="jYcr3VotyzjDWBihK4hr-78" style="edgeStyle=orthogonalEdgeStyle;rounded=0;orthogonalLoop=1;jettySize=auto;html=1;entryX=0.5;entryY=0;entryDx=0;entryDy=0;strokeWidth=4;strokeColor=#2D7600;fillColor=#60a917;" parent="1" source="jYcr3VotyzjDWBihK4hr-79" target="jYcr3VotyzjDWBihK4hr-114" edge="1">
          <mxGeometry relative="1" as="geometry">
            <mxPoint x="5" y="265" as="targetPoint" />
          </mxGeometry>
        </mxCell>
        <mxCell id="jYcr3VotyzjDWBihK4hr-79" value="Handler" style="rounded=0;whiteSpace=wrap;html=1;" parent="1" vertex="1">
          <mxGeometry x="-55" y="160" width="120" height="60" as="geometry" />
        </mxCell>
        <mxCell id="mFbpa8uduFXjR7Y9WIhg-1" style="edgeStyle=orthogonalEdgeStyle;rounded=0;orthogonalLoop=1;jettySize=auto;html=1;entryX=0.5;entryY=1;entryDx=0;entryDy=0;strokeWidth=4;fillColor=#60a917;strokeColor=#2D7600;dashed=1;dashPattern=1 1;" edge="1" parent="1" source="jYcr3VotyzjDWBihK4hr-80" target="jYcr3VotyzjDWBihK4hr-69">
          <mxGeometry relative="1" as="geometry" />
        </mxCell>
        <mxCell id="jYcr3VotyzjDWBihK4hr-80" value="" style="rounded=1;whiteSpace=wrap;html=1;fillColor=#ffffff;" parent="1" vertex="1">
          <mxGeometry x="-140" y="540" width="290" height="60" as="geometry" />
        </mxCell>
        <mxCell id="jYcr3VotyzjDWBihK4hr-85" value="" style="rounded=1;whiteSpace=wrap;html=1;fillColor=#ffffff;" parent="1" vertex="1">
          <mxGeometry x="-140" y="470" width="290" height="60" as="geometry" />
        </mxCell>
        <mxCell id="jYcr3VotyzjDWBihK4hr-86" value="" style="rounded=1;whiteSpace=wrap;html=1;fillColor=#ffffff;" parent="1" vertex="1">
          <mxGeometry x="-140" y="400" width="290" height="60" as="geometry" />
        </mxCell>
        <mxCell id="jYcr3VotyzjDWBihK4hr-87" value="" style="rounded=1;whiteSpace=wrap;html=1;fillColor=#ffffff;" parent="1" vertex="1">
          <mxGeometry x="-140" y="330" width="290" height="60" as="geometry" />
        </mxCell>
        <mxCell id="jYcr3VotyzjDWBihK4hr-88" value="PublishService" style="text;html=1;strokeColor=none;fillColor=none;align=left;verticalAlign=middle;whiteSpace=wrap;rounded=0;" parent="1" vertex="1">
          <mxGeometry x="-129" y="550" width="100" height="20" as="geometry" />
        </mxCell>
        <mxCell id="jYcr3VotyzjDWBihK4hr-89" value="EventStoreService" style="text;html=1;strokeColor=none;fillColor=none;align=left;verticalAlign=middle;whiteSpace=wrap;rounded=0;" parent="1" vertex="1">
          <mxGeometry x="-129" y="480" width="100" height="20" as="geometry" />
        </mxCell>
        <mxCell id="jYcr3VotyzjDWBihK4hr-90" value="LicenseService" style="text;html=1;strokeColor=none;fillColor=none;align=left;verticalAlign=middle;whiteSpace=wrap;rounded=0;" parent="1" vertex="1">
          <mxGeometry x="-129" y="410" width="100" height="20" as="geometry" />
        </mxCell>
        <mxCell id="jYcr3VotyzjDWBihK4hr-91" value="AccountContext" style="text;html=1;strokeColor=none;fillColor=none;align=left;verticalAlign=middle;whiteSpace=wrap;rounded=0;" parent="1" vertex="1">
          <mxGeometry x="-129" y="340" width="100" height="20" as="geometry" />
        </mxCell>
        <mxCell id="jYcr3VotyzjDWBihK4hr-92" value="StatesManager" style="text;html=1;strokeColor=none;fillColor=none;align=left;verticalAlign=middle;whiteSpace=wrap;rounded=0;" parent="1" vertex="1">
          <mxGeometry x="-129" y="240" width="100" height="20" as="geometry" />
        </mxCell>
        <mxCell id="jYcr3VotyzjDWBihK4hr-101" value="MessageBroker" style="text;html=1;strokeColor=none;fillColor=none;align=center;verticalAlign=middle;whiteSpace=wrap;rounded=0;" parent="1" vertex="1">
          <mxGeometry x="-370" y="240" width="100" height="20" as="geometry" />
        </mxCell>
        <mxCell id="jYcr3VotyzjDWBihK4hr-102" value="AccountGlobalEvent" style="shape=hexagon;perimeter=hexagonPerimeter2;whiteSpace=wrap;html=1;fixedSize=1;fillColor=#dae8fc;strokeColor=#6c8ebf;" parent="1" vertex="1">
          <mxGeometry x="-400" y="310" width="160" height="45" as="geometry" />
        </mxCell>
        <mxCell id="jYcr3VotyzjDWBihK4hr-111" value="EventStore" style="text;html=1;strokeColor=none;fillColor=none;align=center;verticalAlign=middle;whiteSpace=wrap;rounded=0;fontSize=16;fontStyle=1" parent="1" vertex="1">
          <mxGeometry x="-1037.5" y="350" width="100" height="20" as="geometry" />
        </mxCell>
        <mxCell id="jYcr3VotyzjDWBihK4hr-112" value="EventStore" style="text;html=1;strokeColor=none;fillColor=none;align=center;verticalAlign=middle;whiteSpace=wrap;rounded=0;fontSize=16;fontStyle=1" parent="1" vertex="1">
          <mxGeometry x="312.5" y="350" width="100" height="20" as="geometry" />
        </mxCell>
        <mxCell id="jYcr3VotyzjDWBihK4hr-114" value="AccountGlobalEvent" style="shape=hexagon;perimeter=hexagonPerimeter2;whiteSpace=wrap;html=1;fixedSize=1;fillColor=#dae8fc;strokeColor=#6c8ebf;" parent="1" vertex="1">
          <mxGeometry x="-75" y="275" width="160" height="45" as="geometry" />
        </mxCell>
        <mxCell id="jYcr3VotyzjDWBihK4hr-125" value="AccountDomainEvent" style="shape=hexagon;perimeter=hexagonPerimeter2;whiteSpace=wrap;html=1;fixedSize=1;fillColor=#d5e8d4;strokeColor=#82b366;" parent="1" vertex="1">
          <mxGeometry x="-726" y="275" width="160" height="45" as="geometry" />
        </mxCell>
        <mxCell id="mFbpa8uduFXjR7Y9WIhg-7" value="&lt;font style=&quot;font-size: 16px;&quot;&gt;&lt;b style=&quot;font-size: 16px;&quot;&gt;MeterializedView&lt;/b&gt;&lt;/font&gt;" style="text;html=1;strokeColor=none;fillColor=none;align=center;verticalAlign=middle;whiteSpace=wrap;rounded=0;fontSize=16;" vertex="1" parent="1">
          <mxGeometry x="-51" y="965" width="174" height="20" as="geometry" />
        </mxCell>
        <mxCell id="mFbpa8uduFXjR7Y9WIhg-11" value="AccountAbstractState" style="rounded=1;whiteSpace=wrap;html=1;strokeWidth=1;fillColor=#f5f5f5;strokeColor=#666666;fontColor=#333333;dashed=1;" vertex="1" parent="1">
          <mxGeometry x="-19" y="340" width="160" height="40" as="geometry" />
        </mxCell>
        <mxCell id="mFbpa8uduFXjR7Y9WIhg-12" value="AccountConcreteState" style="rounded=1;whiteSpace=wrap;html=1;strokeWidth=1;fillColor=#fff2cc;strokeColor=#d6b656;" vertex="1" parent="1">
          <mxGeometry x="-19" y="410" width="160" height="40" as="geometry" />
        </mxCell>
        <mxCell id="mFbpa8uduFXjR7Y9WIhg-13" value="AccountDomainEvent" style="shape=hexagon;perimeter=hexagonPerimeter2;whiteSpace=wrap;html=1;fixedSize=1;fillColor=#d5e8d4;strokeColor=#82b366;" vertex="1" parent="1">
          <mxGeometry x="-19" y="477.5" width="160" height="45" as="geometry" />
        </mxCell>
        <mxCell id="mFbpa8uduFXjR7Y9WIhg-14" value="AccountDomainEvent" style="shape=hexagon;perimeter=hexagonPerimeter2;whiteSpace=wrap;html=1;fixedSize=1;fillColor=#d5e8d4;strokeColor=#82b366;" vertex="1" parent="1">
          <mxGeometry x="-19" y="547.5" width="160" height="45" as="geometry" />
        </mxCell>
        <mxCell id="mFbpa8uduFXjR7Y9WIhg-15" value="AccountDomainEvent" style="shape=hexagon;perimeter=hexagonPerimeter2;whiteSpace=wrap;html=1;fixedSize=1;fillColor=#d5e8d4;strokeColor=#82b366;" vertex="1" parent="1">
          <mxGeometry x="282.5" y="395" width="160" height="45" as="geometry" />
        </mxCell>
        <mxCell id="mFbpa8uduFXjR7Y9WIhg-16" value="AccountDomainEvent" style="shape=hexagon;perimeter=hexagonPerimeter2;whiteSpace=wrap;html=1;fixedSize=1;fillColor=#d5e8d4;strokeColor=#82b366;" vertex="1" parent="1">
          <mxGeometry x="282.5" y="450" width="160" height="45" as="geometry" />
        </mxCell>
        <mxCell id="mFbpa8uduFXjR7Y9WIhg-17" value="AccountDomainEvent" style="shape=hexagon;perimeter=hexagonPerimeter2;whiteSpace=wrap;html=1;fixedSize=1;fillColor=#d5e8d4;strokeColor=#82b366;" vertex="1" parent="1">
          <mxGeometry x="282.5" y="505" width="160" height="45" as="geometry" />
        </mxCell>
        <mxCell id="mFbpa8uduFXjR7Y9WIhg-18" value="AccountGlobalEvent" style="shape=hexagon;perimeter=hexagonPerimeter2;whiteSpace=wrap;html=1;fixedSize=1;fillColor=#dae8fc;strokeColor=#6c8ebf;" vertex="1" parent="1">
          <mxGeometry x="-1067.5" y="395" width="160" height="45" as="geometry" />
        </mxCell>
        <mxCell id="mFbpa8uduFXjR7Y9WIhg-19" value="AccountGlobalEvent" style="shape=hexagon;perimeter=hexagonPerimeter2;whiteSpace=wrap;html=1;fixedSize=1;fillColor=#dae8fc;strokeColor=#6c8ebf;" vertex="1" parent="1">
          <mxGeometry x="-1067.5" y="450" width="160" height="45" as="geometry" />
        </mxCell>
        <mxCell id="mFbpa8uduFXjR7Y9WIhg-20" value="AccountGlobalEvent" style="shape=hexagon;perimeter=hexagonPerimeter2;whiteSpace=wrap;html=1;fixedSize=1;fillColor=#dae8fc;strokeColor=#6c8ebf;" vertex="1" parent="1">
          <mxGeometry x="-1067.5" y="505" width="160" height="45" as="geometry" />
        </mxCell>
        <mxCell id="mFbpa8uduFXjR7Y9WIhg-21" value="AccountDomainEvent" style="shape=hexagon;perimeter=hexagonPerimeter2;whiteSpace=wrap;html=1;fixedSize=1;fillColor=#d5e8d4;strokeColor=#82b366;" vertex="1" parent="1">
          <mxGeometry x="-400" y="397.5" width="160" height="45" as="geometry" />
        </mxCell>
        <mxCell id="mFbpa8uduFXjR7Y9WIhg-27" value="Document" style="shape=tape;whiteSpace=wrap;html=1;dashed=1;fillColor=#f8cecc;strokeColor=#b85450;" vertex="1" parent="1">
          <mxGeometry x="-21.5" y="999" width="120" height="70" as="geometry" />
        </mxCell>
        <mxCell id="mFbpa8uduFXjR7Y9WIhg-29" value="&lt;span&gt;Document&lt;/span&gt;" style="shape=tape;whiteSpace=wrap;html=1;dashed=1;fillColor=#f8cecc;strokeColor=#b85450;" vertex="1" parent="1">
          <mxGeometry x="-21.5" y="1054" width="120" height="70" as="geometry" />
        </mxCell>
        <mxCell id="mFbpa8uduFXjR7Y9WIhg-30" value="&lt;span&gt;Document&lt;/span&gt;" style="shape=tape;whiteSpace=wrap;html=1;dashed=1;fillColor=#f8cecc;strokeColor=#b85450;" vertex="1" parent="1">
          <mxGeometry x="-21.5" y="1109" width="120" height="70" as="geometry" />
        </mxCell>
        <mxCell id="mFbpa8uduFXjR7Y9WIhg-42" value="" style="rounded=1;whiteSpace=wrap;html=1;strokeWidth=1;perimeterSpacing=0;" vertex="1" parent="1">
          <mxGeometry x="-470" y="809" width="310" height="401" as="geometry" />
        </mxCell>
        <mxCell id="mFbpa8uduFXjR7Y9WIhg-44" style="edgeStyle=orthogonalEdgeStyle;rounded=0;orthogonalLoop=1;jettySize=auto;html=1;entryX=0.5;entryY=0;entryDx=0;entryDy=0;strokeWidth=4;strokeColor=#0000CC;" edge="1" parent="1" source="mFbpa8uduFXjR7Y9WIhg-46">
          <mxGeometry relative="1" as="geometry">
            <mxPoint x="-315" y="854" as="targetPoint" />
          </mxGeometry>
        </mxCell>
        <mxCell id="mFbpa8uduFXjR7Y9WIhg-45" value="" style="edgeStyle=orthogonalEdgeStyle;rounded=0;orthogonalLoop=1;jettySize=auto;html=1;strokeWidth=4;fillColor=#0050ef;strokeColor=#001DBC;" edge="1" parent="1" source="mFbpa8uduFXjR7Y9WIhg-46">
          <mxGeometry relative="1" as="geometry">
            <mxPoint x="-315" y="854" as="targetPoint" />
          </mxGeometry>
        </mxCell>
        <mxCell id="mFbpa8uduFXjR7Y9WIhg-46" value="Handler" style="rounded=0;whiteSpace=wrap;html=1;" vertex="1" parent="1">
          <mxGeometry x="-375" y="739" width="120" height="60" as="geometry" />
        </mxCell>
        <mxCell id="mFbpa8uduFXjR7Y9WIhg-85" style="edgeStyle=orthogonalEdgeStyle;rounded=0;orthogonalLoop=1;jettySize=auto;html=1;exitX=0.5;exitY=1;exitDx=0;exitDy=0;entryX=0.5;entryY=0;entryDx=0;entryDy=0;strokeWidth=4;fillColor=#d80073;strokeColor=#A50040;" edge="1" parent="1" source="mFbpa8uduFXjR7Y9WIhg-49" target="mFbpa8uduFXjR7Y9WIhg-84">
          <mxGeometry relative="1" as="geometry" />
        </mxCell>
        <mxCell id="mFbpa8uduFXjR7Y9WIhg-49" value="" style="rounded=1;whiteSpace=wrap;html=1;fillColor=#ffffff;" vertex="1" parent="1">
          <mxGeometry x="-460" y="1119" width="290" height="60" as="geometry" />
        </mxCell>
        <mxCell id="mFbpa8uduFXjR7Y9WIhg-51" value="" style="rounded=1;whiteSpace=wrap;html=1;fillColor=#ffffff;" vertex="1" parent="1">
          <mxGeometry x="-460" y="979" width="290" height="60" as="geometry" />
        </mxCell>
        <mxCell id="mFbpa8uduFXjR7Y9WIhg-52" value="" style="rounded=1;whiteSpace=wrap;html=1;fillColor=#ffffff;" vertex="1" parent="1">
          <mxGeometry x="-460" y="909" width="290" height="60" as="geometry" />
        </mxCell>
        <mxCell id="mFbpa8uduFXjR7Y9WIhg-54" value="&lt;span style=&quot;text-align: center&quot;&gt;MeterializedViewService&lt;br&gt;&lt;/span&gt;" style="text;html=1;strokeColor=none;fillColor=none;align=left;verticalAlign=middle;whiteSpace=wrap;rounded=0;" vertex="1" parent="1">
          <mxGeometry x="-449" y="1130" width="100" height="20" as="geometry" />
        </mxCell>
        <mxCell id="mFbpa8uduFXjR7Y9WIhg-55" value="Service" style="text;html=1;strokeColor=none;fillColor=none;align=left;verticalAlign=middle;whiteSpace=wrap;rounded=0;" vertex="1" parent="1">
          <mxGeometry x="-449" y="989" width="100" height="20" as="geometry" />
        </mxCell>
        <mxCell id="mFbpa8uduFXjR7Y9WIhg-56" value="AccountContext" style="text;html=1;strokeColor=none;fillColor=none;align=left;verticalAlign=middle;whiteSpace=wrap;rounded=0;" vertex="1" parent="1">
          <mxGeometry x="-449" y="919" width="100" height="20" as="geometry" />
        </mxCell>
        <mxCell id="mFbpa8uduFXjR7Y9WIhg-57" value="StatesManager" style="text;html=1;strokeColor=none;fillColor=none;align=left;verticalAlign=middle;whiteSpace=wrap;rounded=0;" vertex="1" parent="1">
          <mxGeometry x="-449" y="819" width="100" height="20" as="geometry" />
        </mxCell>
        <mxCell id="mFbpa8uduFXjR7Y9WIhg-59" value="AccountConcreteState" style="rounded=1;whiteSpace=wrap;html=1;strokeWidth=1;fillColor=#fff2cc;strokeColor=#d6b656;" vertex="1" parent="1">
          <mxGeometry x="-339" y="989" width="160" height="40" as="geometry" />
        </mxCell>
        <mxCell id="mFbpa8uduFXjR7Y9WIhg-61" value="AccountAbstractState" style="rounded=1;whiteSpace=wrap;html=1;strokeWidth=1;fillColor=#f5f5f5;strokeColor=#666666;fontColor=#333333;dashed=1;" vertex="1" parent="1">
          <mxGeometry x="-339" y="919" width="160" height="40" as="geometry" />
        </mxCell>
        <mxCell id="mFbpa8uduFXjR7Y9WIhg-69" value="AccountGlobalEvent" style="shape=hexagon;perimeter=hexagonPerimeter2;whiteSpace=wrap;html=1;fixedSize=1;fillColor=#dae8fc;strokeColor=#6c8ebf;" vertex="1" parent="1">
          <mxGeometry x="-395" y="850" width="160" height="45" as="geometry" />
        </mxCell>
        <mxCell id="mFbpa8uduFXjR7Y9WIhg-76" value="Read" style="shape=step;perimeter=stepPerimeter;whiteSpace=wrap;html=1;fixedSize=1;dashed=1;fillColor=#e1d5e7;strokeColor=#9673a6;" vertex="1" parent="1">
          <mxGeometry x="-880" y="410" width="75" height="40" as="geometry" />
        </mxCell>
        <mxCell id="mFbpa8uduFXjR7Y9WIhg-78" value="Write" style="shape=step;perimeter=stepPerimeter;whiteSpace=wrap;html=1;fixedSize=1;dashed=1;fillColor=#e1d5e7;strokeColor=#9673a6;rounded=0;sketch=0;flipH=1;" vertex="1" parent="1">
          <mxGeometry x="-880" y="480" width="75" height="40" as="geometry" />
        </mxCell>
        <mxCell id="mFbpa8uduFXjR7Y9WIhg-79" value="Read" style="shape=step;perimeter=stepPerimeter;whiteSpace=wrap;html=1;fixedSize=1;dashed=1;fillColor=#e1d5e7;strokeColor=#9673a6;flipH=1;" vertex="1" parent="1">
          <mxGeometry x="170" y="410" width="75" height="40" as="geometry" />
        </mxCell>
        <mxCell id="mFbpa8uduFXjR7Y9WIhg-80" value="Write" style="shape=step;perimeter=stepPerimeter;whiteSpace=wrap;html=1;fixedSize=1;dashed=1;fillColor=#e1d5e7;strokeColor=#9673a6;rounded=0;sketch=0;flipH=0;" vertex="1" parent="1">
          <mxGeometry x="170" y="480" width="75" height="40" as="geometry" />
        </mxCell>
        <mxCell id="mFbpa8uduFXjR7Y9WIhg-82" value="Update" style="shape=step;perimeter=stepPerimeter;whiteSpace=wrap;html=1;fixedSize=1;dashed=1;fillColor=#e1d5e7;strokeColor=#9673a6;rounded=0;sketch=0;flipH=0;" vertex="1" parent="1">
          <mxGeometry x="-150" y="989" width="75" height="40" as="geometry" />
        </mxCell>
        <mxCell id="mFbpa8uduFXjR7Y9WIhg-83" value="Read" style="shape=step;perimeter=stepPerimeter;whiteSpace=wrap;html=1;fixedSize=1;dashed=1;fillColor=#e1d5e7;strokeColor=#9673a6;flipH=1;" vertex="1" parent="1">
          <mxGeometry x="-150" y="1129" width="75" height="40" as="geometry" />
        </mxCell>
        <mxCell id="mFbpa8uduFXjR7Y9WIhg-87" style="edgeStyle=orthogonalEdgeStyle;rounded=0;orthogonalLoop=1;jettySize=auto;html=1;exitX=0.5;exitY=1;exitDx=0;exitDy=0;entryX=0.5;entryY=0;entryDx=0;entryDy=0;strokeWidth=4;fillColor=#d80073;strokeColor=#A50040;" edge="1" parent="1" source="mFbpa8uduFXjR7Y9WIhg-84" target="mFbpa8uduFXjR7Y9WIhg-86">
          <mxGeometry relative="1" as="geometry" />
        </mxCell>
        <mxCell id="mFbpa8uduFXjR7Y9WIhg-84" value="Handler" style="rounded=0;whiteSpace=wrap;html=1;" vertex="1" parent="1">
          <mxGeometry x="-375" y="1230" width="120" height="60" as="geometry" />
        </mxCell>
        <mxCell id="mFbpa8uduFXjR7Y9WIhg-86" value="&lt;font style=&quot;font-size: 27px&quot;&gt;&lt;b&gt;Query&lt;/b&gt;&lt;/font&gt;" style="ellipse;whiteSpace=wrap;html=1;strokeWidth=1;fillColor=#ffffff;" vertex="1" parent="1">
          <mxGeometry x="-388" y="1350" width="146" height="80" as="geometry" />
        </mxCell>
        <mxCell id="mFbpa8uduFXjR7Y9WIhg-91" value="Optimistic Concurrency Control" style="rounded=1;whiteSpace=wrap;html=1;sketch=0;" vertex="1" parent="1">
          <mxGeometry x="-1090" y="300" width="205" height="30" as="geometry" />
        </mxCell>
        <mxCell id="mFbpa8uduFXjR7Y9WIhg-92" value="Optimistic Concurrency Control" style="rounded=1;whiteSpace=wrap;html=1;sketch=0;" vertex="1" parent="1">
          <mxGeometry x="260" y="300" width="205" height="30" as="geometry" />
        </mxCell>
        <mxCell id="mFbpa8uduFXjR7Y9WIhg-93" value="Optimistic Concurrency Control" style="rounded=1;whiteSpace=wrap;html=1;sketch=0;" vertex="1" parent="1">
          <mxGeometry x="-66.5" y="914" width="205" height="30" as="geometry" />
        </mxCell>
      </root>
    </mxGraphModel>
  </diagram>
</mxfile>
